<mxfile host="app.diagrams.net" modified="2024-05-27T14:35:23.195Z" agent="Mozilla/5.0 (Windows NT 10.0; Win64; x64) AppleWebKit/537.36 (KHTML, like Gecko) Chrome/125.0.0.0 Safari/537.36 Edg/125.0.0.0" etag="B-fj0Mt51Y7Den9X_SJF" version="24.4.9" type="device">
  <diagram name="第 1 页" id="Y1IVrKre_yPQABnP3C9H">
    <mxGraphModel dx="691" dy="369" grid="1" gridSize="10" guides="1" tooltips="1" connect="1" arrows="1" fold="1" page="1" pageScale="1" pageWidth="827" pageHeight="1169" math="0" shadow="0">
      <root>
        <mxCell id="0" />
        <mxCell id="1" parent="0" />
        <mxCell id="8tplBPZqbutb2HcItfny-13" style="edgeStyle=orthogonalEdgeStyle;rounded=0;orthogonalLoop=1;jettySize=auto;html=1;entryX=0.5;entryY=0;entryDx=0;entryDy=0;exitX=0.5;exitY=1;exitDx=0;exitDy=0;" edge="1" parent="1" source="8tplBPZqbutb2HcItfny-1" target="8tplBPZqbutb2HcItfny-3">
          <mxGeometry relative="1" as="geometry">
            <mxPoint x="230" y="70" as="targetPoint" />
          </mxGeometry>
        </mxCell>
        <mxCell id="8tplBPZqbutb2HcItfny-1" value="下部，坐标点:&lt;div&gt;&lt;br&gt;&lt;/div&gt;" style="rounded=0;whiteSpace=wrap;html=1;" vertex="1" parent="1">
          <mxGeometry x="48" y="110" width="120" height="53" as="geometry" />
        </mxCell>
        <mxCell id="8tplBPZqbutb2HcItfny-14" style="edgeStyle=orthogonalEdgeStyle;rounded=0;orthogonalLoop=1;jettySize=auto;html=1;exitX=0.5;exitY=1;exitDx=0;exitDy=0;entryX=0.5;entryY=0;entryDx=0;entryDy=0;" edge="1" parent="1" source="8tplBPZqbutb2HcItfny-2" target="8tplBPZqbutb2HcItfny-3">
          <mxGeometry relative="1" as="geometry">
            <mxPoint x="230" y="50" as="targetPoint" />
          </mxGeometry>
        </mxCell>
        <mxCell id="8tplBPZqbutb2HcItfny-2" value="上部，坐标点:&lt;div&gt;&lt;br&gt;&lt;/div&gt;" style="rounded=0;whiteSpace=wrap;html=1;" vertex="1" parent="1">
          <mxGeometry x="348" y="110" width="120" height="53" as="geometry" />
        </mxCell>
        <mxCell id="8tplBPZqbutb2HcItfny-15" style="edgeStyle=orthogonalEdgeStyle;rounded=0;orthogonalLoop=1;jettySize=auto;html=1;exitX=0.5;exitY=1;exitDx=0;exitDy=0;entryX=0.5;entryY=0;entryDx=0;entryDy=0;" edge="1" parent="1" source="8tplBPZqbutb2HcItfny-3" target="8tplBPZqbutb2HcItfny-4">
          <mxGeometry relative="1" as="geometry" />
        </mxCell>
        <mxCell id="8tplBPZqbutb2HcItfny-3" value="分别连点成线" style="rounded=0;whiteSpace=wrap;html=1;" vertex="1" parent="1">
          <mxGeometry x="200" y="210" width="116" height="31" as="geometry" />
        </mxCell>
        <mxCell id="8tplBPZqbutb2HcItfny-16" style="edgeStyle=orthogonalEdgeStyle;rounded=0;orthogonalLoop=1;jettySize=auto;html=1;exitX=0.5;exitY=1;exitDx=0;exitDy=0;entryX=0.5;entryY=0;entryDx=0;entryDy=0;" edge="1" parent="1" source="8tplBPZqbutb2HcItfny-4" target="8tplBPZqbutb2HcItfny-5">
          <mxGeometry relative="1" as="geometry" />
        </mxCell>
        <mxCell id="8tplBPZqbutb2HcItfny-4" value="封闭成面" style="rounded=0;whiteSpace=wrap;html=1;" vertex="1" parent="1">
          <mxGeometry x="200" y="260" width="116" height="31" as="geometry" />
        </mxCell>
        <mxCell id="8tplBPZqbutb2HcItfny-17" style="edgeStyle=orthogonalEdgeStyle;rounded=0;orthogonalLoop=1;jettySize=auto;html=1;exitX=1;exitY=0.5;exitDx=0;exitDy=0;" edge="1" parent="1" source="8tplBPZqbutb2HcItfny-5" target="8tplBPZqbutb2HcItfny-7">
          <mxGeometry relative="1" as="geometry" />
        </mxCell>
        <mxCell id="8tplBPZqbutb2HcItfny-18" style="edgeStyle=orthogonalEdgeStyle;rounded=0;orthogonalLoop=1;jettySize=auto;html=1;exitX=0;exitY=0.5;exitDx=0;exitDy=0;entryX=0.5;entryY=0;entryDx=0;entryDy=0;" edge="1" parent="1" source="8tplBPZqbutb2HcItfny-5" target="8tplBPZqbutb2HcItfny-6">
          <mxGeometry relative="1" as="geometry" />
        </mxCell>
        <mxCell id="8tplBPZqbutb2HcItfny-5" value="面绕 Z 轴旋转一周" style="rounded=0;whiteSpace=wrap;html=1;" vertex="1" parent="1">
          <mxGeometry x="200" y="310" width="116" height="31" as="geometry" />
        </mxCell>
        <mxCell id="8tplBPZqbutb2HcItfny-19" style="edgeStyle=orthogonalEdgeStyle;rounded=0;orthogonalLoop=1;jettySize=auto;html=1;exitX=0.5;exitY=1;exitDx=0;exitDy=0;" edge="1" parent="1" source="8tplBPZqbutb2HcItfny-6" target="8tplBPZqbutb2HcItfny-8">
          <mxGeometry relative="1" as="geometry" />
        </mxCell>
        <mxCell id="8tplBPZqbutb2HcItfny-6" value="下部体" style="rounded=0;whiteSpace=wrap;html=1;" vertex="1" parent="1">
          <mxGeometry x="50" y="352" width="116" height="31" as="geometry" />
        </mxCell>
        <mxCell id="8tplBPZqbutb2HcItfny-20" style="edgeStyle=orthogonalEdgeStyle;rounded=0;orthogonalLoop=1;jettySize=auto;html=1;exitX=0.5;exitY=1;exitDx=0;exitDy=0;entryX=0.5;entryY=0;entryDx=0;entryDy=0;" edge="1" parent="1" source="8tplBPZqbutb2HcItfny-7" target="8tplBPZqbutb2HcItfny-8">
          <mxGeometry relative="1" as="geometry" />
        </mxCell>
        <mxCell id="8tplBPZqbutb2HcItfny-7" value="上部体" style="rounded=0;whiteSpace=wrap;html=1;" vertex="1" parent="1">
          <mxGeometry x="350" y="352" width="116" height="31" as="geometry" />
        </mxCell>
        <mxCell id="8tplBPZqbutb2HcItfny-21" style="edgeStyle=orthogonalEdgeStyle;rounded=0;orthogonalLoop=1;jettySize=auto;html=1;exitX=0.5;exitY=1;exitDx=0;exitDy=0;entryX=0.5;entryY=0;entryDx=0;entryDy=0;" edge="1" parent="1" source="8tplBPZqbutb2HcItfny-8" target="8tplBPZqbutb2HcItfny-9">
          <mxGeometry relative="1" as="geometry" />
        </mxCell>
        <mxCell id="8tplBPZqbutb2HcItfny-8" value="上下合并成体" style="rounded=0;whiteSpace=wrap;html=1;" vertex="1" parent="1">
          <mxGeometry x="200" y="430" width="116" height="31" as="geometry" />
        </mxCell>
        <mxCell id="8tplBPZqbutb2HcItfny-22" style="edgeStyle=orthogonalEdgeStyle;rounded=0;orthogonalLoop=1;jettySize=auto;html=1;exitX=0.5;exitY=1;exitDx=0;exitDy=0;entryX=0.5;entryY=0;entryDx=0;entryDy=0;" edge="1" parent="1" source="8tplBPZqbutb2HcItfny-9" target="8tplBPZqbutb2HcItfny-10">
          <mxGeometry relative="1" as="geometry" />
        </mxCell>
        <mxCell id="8tplBPZqbutb2HcItfny-9" value="棱边倒圆角" style="rounded=0;whiteSpace=wrap;html=1;" vertex="1" parent="1">
          <mxGeometry x="200" y="480" width="116" height="31" as="geometry" />
        </mxCell>
        <mxCell id="8tplBPZqbutb2HcItfny-10" value="基座" style="rounded=0;whiteSpace=wrap;html=1;" vertex="1" parent="1">
          <mxGeometry x="200" y="530" width="116" height="31" as="geometry" />
        </mxCell>
      </root>
    </mxGraphModel>
  </diagram>
</mxfile>
